<?xml version="1.0" encoding="UTF-8" standalone="no"?>
<svg
   xmlns:dc="http://purl.org/dc/elements/1.1/"
   xmlns:cc="http://creativecommons.org/ns#"
   xmlns:rdf="http://www.w3.org/1999/02/22-rdf-syntax-ns#"
   xmlns:svg="http://www.w3.org/2000/svg"
   xmlns="http://www.w3.org/2000/svg"
   viewBox="0 0 253.70667 66.453331"
   height="66.453331"
   width="253.70667"
   xml:space="preserve"
   id="svg2"
   version="1.1"><metadata
     id="metadata8"><rdf:RDF><cc:Work
         rdf:about=""><dc:format>image/svg+xml</dc:format><dc:type
           rdf:resource="http://purl.org/dc/dcmitype/StillImage" /></cc:Work></rdf:RDF></metadata><defs
     id="defs6" /><g
     transform="matrix(1.3333333,0,0,-1.3333333,0,66.453333)"
     id="g10"><g
       transform="scale(0.1)"
       id="g12"><path
         id="path14"
         style="fill:#ffffff;fill-opacity:1;fill-rule:nonzero;stroke:none"
         d="m 85.0352,474.199 c -57.1016,0 -62.0704,-10.566 -69.5196,-39.746 L 12.418,422.051 H 0 l 3.71484,76.347 H 264.348 l 4.347,-76.347 h -9.129 l -6.378,12.363 c -9.489,28.867 -15.524,39.785 -72.641,39.785 h -24.16 V 314.668 c 0,-62.07 8.07,-72.637 49.652,-72.637 V 229.629 H 63.2813 v 12.402 c 41.5857,0 49.6447,10.567 49.6447,72.637 V 474.199 H 85.0352" /><path
         id="path16"
         style="fill:#ffffff;fill-opacity:1;fill-rule:nonzero;stroke:none"
         d="m 475.242,312.207 42.828,126.602 c 12.414,36.64 6.836,47.187 -32.89,47.187 v 12.402 h 116.683 v -12.402 c -39.09,0 -48.406,-9.316 -63.918,-54.609 L 467.172,219.102 h -8.067 L 395.793,413.379 331.234,219.102 h -8.07 l -68.906,212.285 c -14.899,45.293 -24.824,54.609 -60.824,54.609 v 12.402 h 137.8 v -12.402 c -36.621,0 -46.562,-8.691 -33.519,-47.187 l 41.586,-126.602 62.703,186.191 h 11.789 l 61.449,-186.191" /><path
         id="path18"
         style="fill:#ffffff;fill-opacity:1;fill-rule:nonzero;stroke:none"
         d="m 784.723,292.324 3.09,12.422 h 12.421 L 795.27,229.629 H 563.121 v 12.402 c 41.598,0 49.031,10.567 49.031,72.637 v 99.316 c 0,62.071 -7.433,72.012 -49.031,72.012 v 12.402 h 137.188 80.082 l 4.953,-74.472 h -13.039 l -3.09,12.402 c -6.844,28.574 -14.914,39.727 -71.395,39.727 h -41.59 v -92.5 h 3.715 c 62.071,0 67.043,7.461 67.043,49.043 H 739.41 V 311.563 h -12.422 c 0,40.976 -4.972,49.062 -67.043,49.062 h -3.715 v -36.016 c 0,-62.07 7.438,-72.011 49.028,-72.011 h 7.453 c 56.504,0 64.559,10.547 72.012,39.726" /><path
         id="path20"
         style="fill:#ffffff;fill-opacity:1;fill-rule:nonzero;stroke:none"
         d="m 1313.57,485.996 v 12.402 h 142.16 v -12.402 c -41.6,0 -49.06,-9.941 -49.06,-72.012 v -89.375 c 0,-62.07 7.46,-72.011 49.06,-72.011 h 21.72 c 57.11,0 64.56,10.547 72,39.726 l 3.11,12.422 h 13.02 l -4.33,-75.117 h -247.68 v 12.402 c 41.59,0 49.05,10.567 49.05,72.637 v 99.316 c 0,62.071 -7.46,72.012 -49.05,72.012" /><path
         id="path22"
         style="fill:#ffffff;fill-opacity:1;fill-rule:nonzero;stroke:none"
         d="m 921.918,252.598 h -4.93 c -31.054,0 -35.41,6.836 -35.41,47.187 v 176.27 c 10.555,0 36.641,0 40.34,0 81.952,0 98.092,-62.676 98.092,-111.719 0,-49.668 -16.14,-111.738 -98.092,-111.738 z m -1.844,245.8 H 780.371 v -12.402 c 41.594,0 57.133,-9.941 57.133,-72.012 V 229.629 h 82.57 c 105.526,0 151.456,60.82 151.456,134.707 0,73.223 -45.93,134.062 -151.456,134.062" /><path
         id="path24"
         style="fill:#ffffff;fill-opacity:1;fill-rule:nonzero;stroke:none"
         d="m 1185.29,252.598 h -4.96 c -31.05,0 -35.39,6.836 -35.39,47.187 v 176.27 c 10.54,0 36.63,0 40.35,0 81.94,0 98.06,-62.676 98.06,-111.719 0,-49.668 -16.12,-111.738 -98.06,-111.738 z m -1.86,245.8 h -131.61 v -12.402 c 41.6,0 49.05,-9.941 49.05,-72.012 V 229.629 h 82.56 c 105.5,0 151.45,60.82 151.45,134.707 0,73.223 -45.95,134.062 -151.45,134.062" /><path
         id="path26"
         style="fill:#ffffff;fill-opacity:1;fill-rule:nonzero;stroke:none"
         d="m 1765.71,304.746 -3.12,-12.422 c -7.44,-29.179 -15.51,-39.726 -71.99,-39.726 h -7.44 c -41.58,0 -49.05,9.941 -49.05,72.011 v 36.016 h 3.73 c 62.09,0 67.04,-8.086 67.04,-49.062 h 12.4 v 121.035 h -12.4 c 0,-41.582 -4.95,-49.043 -67.04,-49.043 h -3.73 v 92.5 h 41.58 c 56.5,0 64.56,-11.153 71.39,-39.727 l 3.11,-12.402 h 13.04 l -4.97,74.472 h -80.07 -137.18 v -12.402 c 41.58,0 49.03,-9.941 49.03,-72.012 V 229.629 h 183.12 l 4.96,75.117 h -12.41" /><path
         id="path28"
         style="fill:#ffffff;fill-opacity:1;fill-rule:nonzero;stroke:none"
         d="m 561.637,59.1602 v 7.2734 h 73.953 v -7.2734 c -20.809,0 -23.817,-4.0157 -23.817,-29.0821 V 13.0352 C 582.191,13.0352 571.66,0 546.594,0 c -42.371,0 -76.969,35.8516 -76.969,79.4727 0,43.6133 34.598,79.4723 76.969,79.4723 17.547,0 33.84,-7.773 46.629,-21.316 3.257,2.508 5.015,8.023 6.519,14.297 h 7.016 V 96.7695 h -7.27 c -6.769,32.5855 -27.078,50.1325 -51.894,50.1325 -34.348,0 -44.121,-36.343 -44.121,-67.4293 0,-31.0938 9.773,-67.4414 44.121,-67.4414 19.554,0 37.605,8.0195 37.605,31.082 0,10.7812 -6.269,16.0469 -23.562,16.0469" /><path
         id="path30"
         style="fill:#ffffff;fill-opacity:1;fill-rule:nonzero;stroke:none"
         d="m 741.117,112.313 c 0,17.042 -10.281,31.085 -32.09,31.085 H 695.238 V 81.4766 h 13.789 c 21.809,0 32.09,13.789 32.09,30.8364 z M 754.652,43.6133 C 776.715,19.2969 786.238,13.5352 801.531,11.5234 V 4.25781 H 747.133 L 702.512,70.1953 h -7.274 V 40.8594 c 0,-25.0664 3.258,-29.336 24.071,-29.336 V 4.25781 h -79.227 v 7.26559 c 20.813,0 23.82,4.2696 23.82,29.336 v 77.2146 c 0,25.071 -3.007,29.336 -23.82,29.336 v 7.27 h 83.984 c 31.09,0 50.645,-19.055 50.645,-42.367 0,-21.8169 -17.051,-39.6177 -44.375,-42.1177 l 24.316,-26.582" /><path
         id="path32"
         style="fill:#ffffff;fill-opacity:1;fill-rule:nonzero;stroke:none"
         d="m 898.785,146.902 c -35.347,0 -49.89,-37.097 -49.89,-67.4293 0,-30.3399 14.543,-67.4414 49.89,-67.4414 35.606,0 49.891,37.1015 49.891,67.4414 0,30.3323 -14.285,67.4293 -49.891,67.4293 z M 898.785,0 c -45.875,0 -83.48,35.8516 -83.48,79.4727 0,43.6133 37.605,79.4723 83.48,79.4723 46.133,0 83.738,-35.859 83.738,-79.4723 C 982.523,35.8516 944.918,0 898.785,0" /><path
         id="path34"
         style="fill:#ffffff;fill-opacity:1;fill-rule:nonzero;stroke:none"
         d="m 1105.63,147.41 v 7.27 h 61.42 v -7.27 c -20.8,0 -23.81,-4.265 -23.81,-29.336 V 60.168 C 1143.24,20.8008 1115.9,0 1082.82,0 c -33.35,0 -60.18,20.8008 -60.18,60.168 v 57.906 c 0,25.071 -3.25,29.336 -24.062,29.336 v 7.27 h 79.472 v -7.27 c -21.06,0 -24.07,-4.265 -24.07,-29.336 V 62.9219 c 0,-32.336 17.3,-47.3867 38.86,-47.3867 21.56,0 36.85,15.0507 36.85,47.3867 v 55.1521 c 0,25.071 -3.01,29.336 -24.06,29.336" /><path
         id="path36"
         style="fill:#ffffff;fill-opacity:1;fill-rule:nonzero;stroke:none"
         d="m 1282.09,112.313 c 0,17.042 -10.27,31.085 -32.09,31.085 h -13.78 V 81.4766 H 1250 c 21.82,0 32.09,13.789 32.09,30.8364 z m 33.6,0 c 0,-23.3208 -19.55,-42.1177 -50.64,-42.1177 h -28.83 V 40.8594 c 0,-25.0664 3.26,-29.336 24.07,-29.336 V 4.25781 h -79.22 v 7.26559 c 20.8,0 23.81,4.2696 23.81,29.336 v 77.2146 c 0,25.071 -3.01,29.336 -23.81,29.336 v 7.27 h 83.98 c 31.09,0 50.64,-19.055 50.64,-42.367" /><path
         id="path38"
         style="fill:#ffffff;fill-opacity:1;fill-rule:nonzero;stroke:none"
         d="M 0,79.1602 H 401.223" /><path
         id="path40"
         style="fill:none;stroke:#ffffff;stroke-width:7.5;stroke-linecap:butt;stroke-linejoin:miter;stroke-miterlimit:4;stroke-dasharray:none;stroke-opacity:1"
         d="M 0,79.1602 H 401.223" /><path
         id="path42"
         style="fill:#ffffff;fill-opacity:1;fill-rule:nonzero;stroke:none"
         d="m 1380.26,79.1602 h 401.21" /><path
         id="path44"
         style="fill:none;stroke:#ffffff;stroke-width:7.5;stroke-linecap:butt;stroke-linejoin:miter;stroke-miterlimit:4;stroke-dasharray:none;stroke-opacity:1"
         d="m 1380.26,79.1602 h 401.21" /><path
         id="path46"
         style="fill:#ffffff;fill-opacity:1;fill-rule:nonzero;stroke:none"
         d="m 1835.37,493.672 v -45.813 h -5.61 v 45.813 h -15.13 v 4.754 h 35.86 v -4.754 h -15.12" /><path
         id="path48"
         style="fill:#ffffff;fill-opacity:1;fill-rule:nonzero;stroke:none"
         d="m 1897.75,447.859 v 46.223 h -0.22 l -14.14,-46.223 h -4.34 l -14.22,46.223 h -0.21 v -46.223 h -5.04 v 50.567 h 8.68 l 12.89,-40.906 h 0.13 l 12.68,40.906 h 8.83 v -50.567 h -5.04" /></g></g></svg>